<svg width="147" height="154" viewBox="0 0 147 154" fill="none" xmlns="http://www.w3.org/2000/svg">
<path d="M144.655 94.9237L131.509 87.3323C132.836 80.1729 132.836 72.8284 131.509 65.669L144.655 58.0776C146.167 57.2136 146.846 55.4237 146.352 53.7573C142.927 42.7714 137.095 32.8347 129.472 24.5644C128.3 23.2991 126.386 22.9905 124.905 23.8546L111.759 31.446C106.235 26.6936 99.8782 23.0214 92.9966 20.6144V5.4624C92.9966 3.73427 91.7931 2.22216 90.0958 1.85185C78.7704 -0.678617 67.1673 -0.55518 56.3974 1.85185C54.7001 2.22216 53.4966 3.73427 53.4966 5.4624V20.6452C46.6458 23.0831 40.2888 26.7554 34.7341 31.4769L21.6189 23.8854C20.1068 23.0214 18.2243 23.2991 17.0517 24.5952C9.42943 32.8347 3.59701 42.7714 0.171615 53.7882C-0.352994 55.4546 0.356771 57.2444 1.86888 58.1085L15.015 65.6999C13.688 72.8593 13.688 80.2038 15.015 87.3632L1.86888 94.9546C0.356771 95.8186 -0.322135 97.6085 0.171615 99.2749C3.59701 110.261 9.42943 120.198 17.0517 128.468C18.2243 129.733 20.1376 130.042 21.6189 129.178L34.765 121.586C40.2888 126.339 46.6458 130.011 53.5275 132.418V147.601C53.5275 149.329 54.731 150.841 56.4283 151.211C67.7536 153.742 79.3568 153.618 90.1267 151.211C91.824 150.841 93.0275 149.329 93.0275 147.601V132.418C99.8782 129.98 106.235 126.308 111.79 121.586L124.936 129.178C126.448 130.042 128.331 129.764 129.503 128.468C137.126 120.228 142.958 110.292 146.383 99.2749C146.846 97.5776 146.167 95.7878 144.655 94.9237V94.9237ZM73.2466 101.188C59.6376 101.188 48.5591 90.1097 48.5591 76.5007C48.5591 62.8917 59.6376 51.8132 73.2466 51.8132C86.8556 51.8132 97.9341 62.8917 97.9341 76.5007C97.9341 90.1097 86.8556 101.188 73.2466 101.188Z" fill="#02BC8F"/>
</svg>
